<svg version="1.1" id="Layer_1" xmlns="http://www.w3.org/2000/svg" xmlns:xlink="http://www.w3.org/1999/xlink" x="0px" y="0px"
	 width="100%" viewBox="0 0 500 500" enable-background="new 0 0 500 500" xml:space="preserve">
<path fill="#FF974E" opacity="1.000000" stroke="none" 
	d="
M434.000000,1.000000 
	C456.317902,1.000000 478.635834,1.000000 500.949829,1.000003 
	C500.945923,167.666672 500.945923,334.333344 500.945923,501.000000 
	C478.906982,501.000000 456.922150,501.000000 434.468658,500.531342 
	C434.000000,333.708466 434.000000,167.354233 434.000000,1.000000 
z"/>
<path fill="#FFA04F" opacity="1.000000" stroke="none" 
	d="
M433.531342,1.000000 
	C434.000000,167.354233 434.000000,333.708466 434.000000,500.531342 
	C416.645782,501.000000 399.291534,501.000000 381.472290,500.603882 
	C381.015228,492.005585 380.968231,483.802887 381.043304,475.601318 
	C381.176941,461.003326 381.534393,446.405884 381.521698,431.808441 
	C381.506958,414.884430 381.194244,397.960663 381.137390,380.587769 
	C378.638397,350.488037 375.995544,320.838837 373.394257,291.186005 
	C371.956085,274.792389 370.587433,258.392700 369.514587,241.859192 
	C370.227844,237.374649 370.946625,233.026978 370.950562,228.678650 
	C371.019073,152.785812 371.000000,76.892899 371.000000,1.000000 
	C391.687561,1.000000 412.375122,1.000000 433.531342,1.000000 
z"/>
<path fill="#FFD357" opacity="1.000000" stroke="none" 
	d="
M98.000000,501.000000 
	C81.979103,501.000000 65.958214,501.000000 49.468658,500.531342 
	C49.000000,333.708466 49.000000,167.354233 49.000000,1.000000 
	C65.020897,1.000000 81.041786,1.000000 97.531342,1.468657 
	C98.000000,168.291550 98.000000,334.645782 98.000000,501.000000 
z"/>
<path fill="#FFDB58" opacity="1.000000" stroke="none" 
	d="
M48.531342,1.000000 
	C49.000000,167.354233 49.000000,333.708466 49.000000,500.531342 
	C33.011749,501.000000 17.023502,501.000000 1.041916,501.000000 
	C1.048578,334.333313 1.048578,167.666656 1.048578,1.000000 
	C16.752331,1.000000 32.407509,1.000000 48.531342,1.000000 
z"/>
<path fill="#FFCB56" opacity="1.000000" stroke="none" 
	d="
M98.468658,501.000000 
	C98.000000,334.645782 98.000000,168.291550 98.000000,1.468657 
	C110.354225,1.000000 122.708458,1.000000 135.531342,1.468657 
	C136.000000,49.421608 135.997849,96.905907 136.004257,144.390198 
	C136.004745,148.012711 136.065750,151.635223 135.968567,155.567200 
	C130.762039,162.556290 124.645767,168.695740 120.834259,176.032516 
	C113.773071,189.624649 111.244125,204.484619 112.130638,219.912003 
	C113.320251,240.613770 120.476501,258.696045 134.694275,273.929779 
	C138.944611,278.483826 142.903809,283.309601 147.016602,288.403351 
	C148.023972,292.531372 149.011154,296.266907 149.641602,299.946411 
	C143.900436,298.784363 146.107361,303.080414 146.103821,304.941437 
	C145.979645,370.294128 146.000031,435.647095 146.000000,501.000000 
	C130.312439,501.000000 114.624878,501.000000 98.468658,501.000000 
z"/>
<path fill="#FFAA51" opacity="1.000000" stroke="none" 
	d="
M370.531342,1.000000 
	C371.000000,76.892899 371.019073,152.785812 370.950562,228.678650 
	C370.946625,233.026978 370.227844,237.374649 369.421814,241.422455 
	C368.405823,235.081543 367.809753,229.040771 367.189240,222.752487 
	C354.851410,222.752487 343.086426,222.658569 331.327942,222.891800 
	C330.097260,222.916229 328.365875,224.639755 327.785217,225.974472 
	C324.758362,232.932159 322.028656,240.019104 318.916443,246.743607 
	C318.424896,244.135086 318.027679,241.844086 318.026733,239.552933 
	C317.994690,160.035294 318.000000,80.517647 318.000000,1.000000 
	C335.354218,1.000000 352.708466,1.000000 370.531342,1.000000 
z"/>
<path fill="#FFB152" opacity="1.000000" stroke="none" 
	d="
M317.531342,1.000000 
	C318.000000,80.517647 317.994690,160.035294 318.026733,239.552933 
	C318.027679,241.844086 318.424896,244.135086 318.881836,247.119278 
	C316.022064,256.209839 312.917786,264.607269 309.443604,273.046234 
	C308.064484,275.734924 307.055267,278.382080 306.043823,281.327484 
	C305.840607,281.808197 305.645752,281.998901 305.428802,282.159912 
	C305.407928,282.175354 305.206909,282.024170 305.161713,281.919220 
	C304.422729,280.204315 303.695435,278.484406 302.892090,276.441528 
	C298.801361,271.225189 293.847748,272.634277 288.555603,274.025940 
	C286.613007,275.405884 285.008209,276.808167 283.118256,277.947266 
	C281.709564,275.653748 281.911804,272.280029 277.947968,272.650574 
	C276.037842,267.599152 274.260040,262.890961 272.852478,257.977722 
	C273.815125,255.307419 274.922729,252.842743 274.925415,250.376877 
	C275.015289,167.251312 275.000000,84.125648 275.000000,1.000000 
	C289.020905,1.000000 303.041779,1.000000 317.531342,1.000000 
z"/>
<path fill="#FFC455" opacity="1.000000" stroke="none" 
	d="
M146.468658,501.000000 
	C146.000031,435.647095 145.979645,370.294128 146.103821,304.941437 
	C146.107361,303.080414 143.900436,298.784363 149.888641,300.174683 
	C155.473648,306.594574 160.302841,312.865540 165.551971,318.762787 
	C166.739609,320.097076 169.386948,320.132080 171.362381,320.765198 
	C171.908112,319.007324 172.884308,317.259399 172.924973,315.489960 
	C173.100082,307.872589 172.899017,300.246490 173.085251,292.629639 
	C173.123322,291.071960 174.238983,289.540619 175.120026,288.279602 
	C176.543503,288.681702 177.704865,288.801331 179.186508,288.953918 
	C176.932098,283.275543 174.931290,278.235962 172.947113,272.715668 
	C172.975113,263.262573 173.069778,254.288818 172.921783,245.319061 
	C172.894882,243.688309 171.875763,242.073898 171.314713,240.451950 
	C169.666412,241.027710 167.931351,241.433472 166.390640,242.219971 
	C164.203461,243.336487 162.159348,244.733231 159.770599,245.805099 
	C145.696365,223.108826 149.144821,193.042831 167.562592,176.047241 
	C173.848694,170.246567 181.080872,166.485397 189.960876,167.304871 
	C189.982849,180.550034 189.992355,193.315445 189.765533,206.418396 
	C189.384476,215.091156 189.239746,223.426392 189.068665,232.244904 
	C189.028458,244.346451 189.074005,255.965439 188.940460,267.582336 
	C188.918991,269.449554 188.098282,271.307617 187.230881,273.126465 
	C185.887970,273.619995 184.189072,274.115814 184.157913,274.700470 
	C183.930542,278.968719 183.965454,283.257629 184.126724,287.532104 
	C184.148270,288.102966 185.344894,288.629486 185.913300,289.574890 
	C185.793533,302.223572 185.746674,314.473877 185.747513,326.724182 
	C185.747574,327.532410 186.144379,328.334290 186.299942,329.149963 
	C186.879456,332.188354 187.922119,335.230408 187.927704,338.272644 
	C188.027313,392.514954 188.000000,446.757507 188.000000,501.000000 
	C174.312439,501.000000 160.624878,501.000000 146.468658,501.000000 
z"/>
<path fill="#FEB753" opacity="1.000000" stroke="none" 
	d="
M274.531342,1.000000 
	C275.000000,84.125648 275.015289,167.251312 274.925415,250.376877 
	C274.922729,252.842743 273.815125,255.307419 272.662354,257.687622 
	C264.338867,241.461929 259.938080,224.639771 262.964844,205.992508 
	C252.172607,205.992508 242.586227,205.992508 232.976257,205.572174 
	C232.634750,199.690933 232.470840,194.214050 231.907471,188.778580 
	C231.732697,187.092239 230.473785,185.518234 229.843323,183.577148 
	C236.739212,175.789597 243.502991,168.317688 250.826828,160.227066 
	C244.567184,154.930084 238.765656,150.020767 233.154907,144.768555 
	C233.897095,141.896347 234.923996,139.368057 234.929428,136.837555 
	C235.026581,91.558525 235.000000,46.279236 235.000000,1.000000 
	C248.020889,1.000000 261.041779,1.000000 274.531342,1.000000 
z"/>
<path fill="#FEB753" opacity="1.000000" stroke="none" 
	d="
M273.000000,501.000000 
	C258.979095,501.000000 244.958206,501.000000 230.468658,500.531342 
	C229.999084,460.431427 229.998184,420.800171 230.454590,381.095032 
	C234.549179,381.021149 238.186447,381.021149 242.115921,381.021149 
	C242.943665,370.892426 243.840439,361.142883 244.516479,351.377991 
	C245.721527,333.972260 246.793121,316.557220 248.083435,298.788361 
	C248.812927,295.243256 249.379486,292.055908 250.025375,288.636902 
	C250.104721,288.405273 250.472900,288.082428 250.472900,288.082428 
	C250.472900,288.082428 250.962250,288.100708 251.040604,288.463318 
	C259.007111,311.550415 266.895294,334.274902 274.436584,357.164307 
	C273.726501,359.373932 273.048889,361.418243 273.046204,363.463440 
	C272.985992,409.308899 273.000000,455.154449 273.000000,501.000000 
z"/>
<path fill="#FFBE54" opacity="1.000000" stroke="none" 
	d="
M229.997284,381.168915 
	C229.998184,420.800171 229.999084,460.431427 230.000000,500.531342 
	C216.312439,501.000000 202.624878,501.000000 188.468658,501.000000 
	C188.000000,446.757507 188.027313,392.514954 187.927704,338.272644 
	C187.922119,335.230408 186.879456,332.188354 186.299942,329.149963 
	C186.144379,328.334290 185.747574,327.532410 185.747513,326.724182 
	C185.746674,314.473877 185.793533,302.223572 186.276733,289.435120 
	C187.131790,286.043823 187.539337,283.190704 188.109955,279.195953 
	C190.502090,282.860107 192.246902,285.532745 193.964783,288.613129 
	C193.625427,298.965424 193.185165,308.908051 193.035965,318.855042 
	C192.881699,329.139709 193.861420,330.008301 204.412872,329.919861 
	C206.767960,329.624939 208.713425,329.403992 210.668442,329.635010 
	C209.151779,346.924255 207.625565,363.761566 206.047684,381.168915 
	C214.397324,381.168915 222.197311,381.168915 229.997284,381.168915 
z"/>
<path fill="#FEAB51" opacity="1.000000" stroke="none" 
	d="
M347.000000,501.000000 
	C335.312439,501.000000 323.624878,501.000000 311.468658,500.531342 
	C311.000000,458.707214 311.036591,417.351593 310.907806,375.996521 
	C310.900208,373.550323 309.562744,371.108215 308.856140,368.293945 
	C318.193604,341.108032 327.519073,314.292450 336.844543,287.476837 
	C338.788757,298.414856 339.653656,309.026306 340.501831,319.639099 
	C341.350250,330.255646 342.099701,340.880859 343.044861,351.488678 
	C343.924927,361.366699 345.005463,371.226837 345.998413,381.509338 
	C346.113464,392.428986 346.271210,402.933960 346.329437,413.439453 
	C346.383087,423.121124 346.343323,432.803406 346.319824,442.485382 
	C346.297546,451.665100 346.122345,460.846222 346.234772,470.024048 
	C346.361237,480.350952 346.734222,490.674805 347.000000,501.000000 
z"/>
<path fill="#FFBD54" opacity="1.000000" stroke="none" 
	d="
M234.531342,1.000000 
	C235.000000,46.279236 235.026581,91.558525 234.929428,136.837555 
	C234.923996,139.368057 233.897095,141.896347 232.808212,144.696671 
	C222.061905,138.631683 210.727493,135.691254 198.920929,133.532257 
	C198.561768,130.665115 198.039032,128.204956 198.036057,125.744171 
	C197.985703,84.162827 198.000015,42.581406 198.000000,1.000000 
	C210.020889,1.000000 222.041794,1.000000 234.531342,1.000000 
z"/>
<path fill="#FFB152" opacity="1.000000" stroke="none" 
	d="
M308.844147,368.664215 
	C309.562744,371.108215 310.900208,373.550323 310.907806,375.996521 
	C311.036591,417.351593 311.000000,458.707214 311.000000,500.531342 
	C298.645782,501.000000 286.291534,501.000000 273.468658,501.000000 
	C273.000000,455.154449 272.985992,409.308899 273.046204,363.463440 
	C273.048889,361.418243 273.726501,359.373932 274.608734,357.502777 
	C277.401306,364.087708 279.553986,370.546783 282.047760,376.871368 
	C282.563721,378.179932 284.307007,379.825439 285.554443,379.886383 
	C291.842865,380.193481 298.154388,380.027374 304.335083,380.027374 
	C305.932587,376.001556 307.388367,372.332886 308.844147,368.664215 
z"/>
<path fill="#FFC255" opacity="1.000000" stroke="none" 
	d="
M197.531342,1.000000 
	C198.000015,42.581406 197.985703,84.162827 198.036057,125.744171 
	C198.039032,128.204956 198.561768,130.665115 198.455994,133.595276 
	C186.880173,133.302292 175.849243,134.228668 165.004883,136.683990 
	C165.002213,91.136757 165.001099,46.068378 165.000000,1.000000 
	C175.687561,1.000000 186.375122,1.000000 197.531342,1.000000 
z"/>
<path fill="#FFA650" opacity="1.000000" stroke="none" 
	d="
M347.468658,501.000000 
	C346.734222,490.674805 346.361237,480.350952 346.234772,470.024048 
	C346.122345,460.846222 346.297546,451.665100 346.319824,442.485382 
	C346.343323,432.803406 346.383087,423.121124 346.329437,413.439453 
	C346.271210,402.933960 346.113464,392.428986 346.465729,381.469208 
	C358.291840,381.022003 369.651367,381.029419 381.010864,381.036804 
	C381.194244,397.960663 381.506958,414.884430 381.521698,431.808441 
	C381.534393,446.405884 381.176941,461.003326 381.043304,475.601318 
	C380.968231,483.802887 381.015228,492.005585 381.003601,500.603882 
	C369.979095,501.000000 358.958221,501.000000 347.468658,501.000000 
z"/>
<path fill="#FFC755" opacity="1.000000" stroke="none" 
	d="
M164.531342,1.000000 
	C165.001099,46.068378 165.002213,91.136757 164.758194,136.940216 
	C153.542236,141.113068 144.524368,147.706940 136.098633,155.257736 
	C136.065750,151.635223 136.004745,148.012711 136.004257,144.390198 
	C135.997849,96.905907 136.000000,49.421608 136.000000,1.468657 
	C145.354233,1.000000 154.708450,1.000000 164.531342,1.000000 
z"/>
<path fill="#030201" opacity="1.000000" stroke="none" 
	d="
M381.137390,380.587769 
	C369.651367,381.029419 358.291840,381.022003 346.465027,381.054749 
	C345.005463,371.226837 343.924927,361.366699 343.044861,351.488678 
	C342.099701,340.880859 341.350250,330.255646 340.501831,319.639099 
	C339.653656,309.026306 338.788757,298.414856 336.844543,287.476837 
	C327.519073,314.292450 318.193604,341.108032 308.856140,368.293945 
	C307.388367,372.332886 305.932587,376.001556 304.335083,380.027374 
	C298.154388,380.027374 291.842865,380.193481 285.554443,379.886383 
	C284.307007,379.825439 282.563721,378.179932 282.047760,376.871368 
	C279.553986,370.546783 277.401306,364.087708 274.955566,357.337830 
	C266.895294,334.274902 259.007111,311.550415 251.049988,287.993469 
	C250.650070,282.430450 250.319138,277.699860 250.024139,272.571533 
	C247.144318,257.443817 239.080551,246.465240 225.739273,238.902985 
	C221.556152,236.498917 218.060410,233.241241 212.781952,233.526245 
	C209.324646,232.910538 206.159424,232.529388 202.535461,232.075058 
	C197.749481,231.921783 193.422256,231.841705 189.095032,231.761642 
	C189.239746,223.426392 189.384476,215.091156 190.230072,206.484406 
	C204.953918,206.139450 218.976883,206.065979 232.999847,205.992508 
	C242.586227,205.992508 252.172607,205.992508 262.964844,205.992508 
	C259.938080,224.639771 264.338867,241.461929 272.292175,257.892700 
	C274.260040,262.890961 276.037842,267.599152 277.806885,272.970001 
	C276.241455,275.707550 274.684753,277.782440 273.253967,279.689545 
	C269.610535,278.032562 269.784668,272.043396 264.180145,273.347046 
	C264.180145,277.775208 264.067566,282.096252 264.272156,286.402252 
	C264.314667,287.296967 265.532684,288.135864 266.208984,289.000488 
	C266.760498,288.182007 267.686096,287.407379 267.788239,286.536224 
	C268.024963,284.517365 267.863525,282.451813 267.863525,280.405212 
	C271.618469,286.156158 274.743103,283.762390 278.196350,279.331909 
	C278.196350,283.281281 278.196350,286.062317 278.196350,290.372070 
	C279.938751,288.594940 281.192780,287.893524 281.487549,286.905792 
	C282.334137,284.069397 282.792511,281.117157 283.403442,278.210449 
	C285.008209,276.808167 286.613007,275.405884 288.548462,274.381531 
	C286.264252,278.648651 285.027985,283.013306 288.781494,286.413605 
	C290.702759,288.154022 294.731781,289.231567 297.104889,288.456207 
	C301.765076,286.933502 303.166748,282.824524 301.519775,277.961517 
	C301.448212,277.750275 302.458893,277.172577 302.965485,276.765594 
	C303.695435,278.484406 304.422729,280.204315 305.161713,281.919220 
	C305.206909,282.024170 305.407928,282.175354 305.428802,282.159912 
	C305.645752,281.998901 305.840607,281.808197 306.383972,281.562103 
	C306.810486,281.817505 306.902039,282.134766 306.977448,282.455841 
	C307.487183,284.625641 307.993530,286.796204 308.500916,288.966553 
	C309.236603,286.949036 309.970215,284.930786 310.712189,282.915588 
	C310.768158,282.763519 310.883789,282.633392 311.000397,282.447266 
	C313.178650,282.447266 315.376953,282.447266 317.844452,282.447266 
	C317.844452,283.784302 317.619965,284.829681 317.900299,285.715271 
	C318.265015,286.867371 319.030762,287.892548 319.623901,288.972351 
	C320.121277,287.966858 321.009003,286.976288 321.048004,285.953339 
	C321.210052,281.702759 321.116089,277.442444 321.116089,273.185669 
	C320.473206,273.022827 319.830322,272.859985 319.187439,272.697113 
	C318.508057,274.669861 317.828644,276.642609 317.140717,278.640076 
	C315.070618,278.640076 312.869720,278.640076 310.832611,278.640076 
	C310.446594,276.505432 310.130066,274.755066 309.813538,273.004700 
	C312.917786,264.607269 316.022064,256.209839 319.160950,247.436737 
	C322.028656,240.019104 324.758362,232.932159 327.785217,225.974472 
	C328.365875,224.639755 330.097260,222.916229 331.327942,222.891800 
	C343.086426,222.658569 354.851410,222.752487 367.189240,222.752487 
	C367.809753,229.040771 368.405823,235.081543 369.094666,241.559021 
	C370.587433,258.392700 371.956085,274.792389 373.394257,291.186005 
	C375.995544,320.838837 378.638397,350.488037 381.137390,380.587769 
M300.090485,297.586761 
	C300.357056,296.470825 300.623627,295.354919 300.714996,294.972504 
	C295.500427,294.665863 290.786774,294.388672 286.103912,294.113312 
	C288.413239,300.087189 290.877502,306.461853 293.741821,313.871277 
	C296.036499,308.060730 297.953827,303.205658 300.090485,297.586761 
M355.284088,281.177002 
	C354.416168,279.035919 353.727936,276.797791 352.636841,274.777222 
	C351.123260,271.974396 348.847107,271.972656 347.510101,274.667053 
	C345.288513,279.144012 343.623962,283.897400 341.277496,289.626495 
	C344.956696,287.984711 347.494873,285.967773 350.033966,285.966614 
	C352.597198,285.965454 355.161346,287.963409 358.697845,289.511322 
	C357.352448,286.132111 356.502289,283.996735 355.284088,281.177002 
M333.372070,273.024414 
	C330.924469,273.024414 328.476868,273.024414 326.029266,273.024414 
	C325.860535,273.481506 325.691772,273.938629 325.523041,274.395721 
	C326.861450,275.238586 328.199860,276.081451 329.910095,277.158447 
	C329.910095,279.932007 329.774506,283.083252 329.991852,286.209930 
	C330.057953,287.161224 331.097229,288.044861 331.690826,288.959473 
	C332.177002,288.100250 333.037506,287.260101 333.082550,286.378357 
	C333.249969,283.098724 333.149323,279.805450 333.149323,277.341980 
	C334.971588,276.122864 336.058350,275.395844 337.145081,274.668823 
	C336.196747,274.120911 335.248413,273.572998 333.372070,273.024414 
z"/>
<path fill="#020201" opacity="1.000000" stroke="none" 
	d="
M135.968567,155.567200 
	C144.524368,147.706940 153.542236,141.113068 164.759750,137.419067 
	C175.849243,134.228668 186.880173,133.302292 198.534302,134.001968 
	C210.727493,135.691254 222.061905,138.631683 232.617462,145.039551 
	C238.765656,150.020767 244.567184,154.930084 250.826828,160.227066 
	C243.502991,168.317688 236.739212,175.789597 229.544037,183.728973 
	C228.269821,184.882309 227.426987,185.568207 226.549911,186.281967 
	C217.574081,173.225311 206.142975,165.497437 189.948441,166.825119 
	C181.080872,166.485397 173.848694,170.246567 167.562592,176.047241 
	C149.144821,193.042831 145.696365,223.108826 159.769669,246.166595 
	C158.831161,248.458313 157.669342,250.229187 156.378510,251.900391 
	C151.434692,258.301086 148.136597,265.370819 147.170639,272.827728 
	C150.620743,273.318787 153.749481,273.764130 156.878235,274.209442 
	C156.842361,274.884613 156.806503,275.559784 156.770630,276.234955 
	C155.672180,276.366638 154.575607,276.517273 153.474823,276.625244 
	C152.065140,276.763580 150.161057,276.348938 149.357254,277.109802 
	C148.193756,278.211151 147.157272,280.191467 147.246674,281.728180 
	C147.488693,285.888306 151.635681,286.842712 154.587738,283.815430 
	C153.609879,282.937744 152.616043,282.045715 150.644257,280.275940 
	C154.029388,280.275940 155.904480,280.275940 157.762131,280.275940 
	C158.264740,288.294586 154.771790,290.712036 146.996399,288.010864 
	C142.903809,283.309601 138.944611,278.483826 134.694275,273.929779 
	C120.476501,258.696045 113.320251,240.613770 112.130638,219.912003 
	C111.244125,204.484619 113.773071,189.624649 120.834259,176.032516 
	C124.645767,168.695740 130.762039,162.556290 135.968567,155.567200 
z"/>
<path fill="#FDD156" opacity="1.000000" stroke="none" 
	d="
M147.016602,288.403351 
	C154.771790,290.712036 158.264740,288.294586 157.762131,280.275940 
	C155.904480,280.275940 154.029388,280.275940 150.644257,280.275940 
	C152.616043,282.045715 153.609879,282.937744 154.587738,283.815430 
	C151.635681,286.842712 147.488693,285.888306 147.246674,281.728180 
	C147.157272,280.191467 148.193756,278.211151 149.357254,277.109802 
	C150.161057,276.348938 152.065140,276.763580 153.474823,276.625244 
	C154.575607,276.517273 155.672180,276.366638 156.770630,276.234955 
	C156.806503,275.559784 156.842361,274.884613 156.878235,274.209442 
	C153.749481,273.764130 150.620743,273.318787 147.170639,272.827728 
	C148.136597,265.370819 151.434692,258.301086 156.378510,251.900391 
	C157.669342,250.229187 158.831161,248.458313 160.053162,246.371735 
	C162.159348,244.733231 164.203461,243.336487 166.390640,242.219971 
	C167.931351,241.433472 169.666412,241.027710 171.314713,240.451950 
	C171.875763,242.073898 172.894882,243.688309 172.921783,245.319061 
	C173.069778,254.288818 172.975113,263.262573 172.559540,272.647217 
	C170.797440,273.654663 168.705612,273.890869 168.208511,274.907166 
	C166.052872,279.314117 164.362701,283.948792 162.503281,288.500671 
	C162.793411,288.798859 163.083527,289.097046 163.373642,289.395233 
	C164.532944,288.630676 165.831665,288.013123 166.823700,287.072205 
	C169.182739,284.834747 172.663315,285.168823 174.857941,287.997131 
	C174.238983,289.540619 173.123322,291.071960 173.085251,292.629639 
	C172.899017,300.246490 173.100082,307.872589 172.924973,315.489960 
	C172.884308,317.259399 171.908112,319.007324 171.362381,320.765198 
	C169.386948,320.132080 166.739609,320.097076 165.551971,318.762787 
	C160.302841,312.865540 155.473648,306.594574 150.245361,300.230682 
	C149.011154,296.266907 148.023972,292.531372 147.016602,288.403351 
z"/>
<path fill="#EBBA4F" opacity="1.000000" stroke="none" 
	d="
M283.118256,277.947266 
	C282.792511,281.117157 282.334137,284.069397 281.487549,286.905792 
	C281.192780,287.893524 279.938751,288.594940 278.196350,290.372070 
	C278.196350,286.062317 278.196350,283.281281 278.196350,279.331909 
	C274.743103,283.762390 271.618469,286.156158 267.863525,280.405212 
	C267.863525,282.451813 268.024963,284.517365 267.788239,286.536224 
	C267.686096,287.407379 266.760498,288.182007 266.208984,289.000488 
	C265.532684,288.135864 264.314667,287.296967 264.272156,286.402252 
	C264.067566,282.096252 264.180145,277.775208 264.180145,273.347046 
	C269.784668,272.043396 269.610535,278.032562 273.253967,279.689545 
	C274.684753,277.782440 276.241455,275.707550 277.939209,273.313293 
	C281.911804,272.280029 281.709564,275.653748 283.118256,277.947266 
z"/>
<path fill="#F3C052" opacity="1.000000" stroke="none" 
	d="
M302.892090,276.441528 
	C302.458893,277.172577 301.448212,277.750275 301.519775,277.961517 
	C303.166748,282.824524 301.765076,286.933502 297.104889,288.456207 
	C294.731781,289.231567 290.702759,288.154022 288.781494,286.413605 
	C285.027985,283.013306 286.264252,278.648651 288.886292,274.403900 
	C293.847748,272.634277 298.801361,271.225189 302.892090,276.441528 
M293.674225,285.839539 
	C294.747192,285.523529 296.562866,285.449371 296.758759,284.847778 
	C297.442749,282.747437 298.201050,280.279175 297.630890,278.331329 
	C297.354462,277.387146 293.804321,276.395935 292.412537,276.995575 
	C289.625580,278.196350 289.171356,280.956360 290.796021,283.655548 
	C291.273285,284.448456 292.211792,284.963684 293.674225,285.839539 
z"/>
<path fill="#FCC855" opacity="1.000000" stroke="none" 
	d="
M309.443604,273.046234 
	C310.130066,274.755066 310.446594,276.505432 310.832611,278.640076 
	C312.869720,278.640076 315.070618,278.640076 317.140717,278.640076 
	C317.828644,276.642609 318.508057,274.669861 319.187439,272.697113 
	C319.830322,272.859985 320.473206,273.022827 321.116089,273.185669 
	C321.116089,277.442444 321.210052,281.702759 321.048004,285.953339 
	C321.009003,286.976288 320.121277,287.966858 319.623901,288.972351 
	C319.030762,287.892548 318.265015,286.867371 317.900299,285.715271 
	C317.619965,284.829681 317.844452,283.784302 317.844452,282.447266 
	C315.376953,282.447266 313.178650,282.447266 311.000397,282.447266 
	C310.883789,282.633392 310.768158,282.763519 310.712189,282.915588 
	C309.970215,284.930786 309.236603,286.949036 308.500916,288.966553 
	C307.993530,286.796204 307.487183,284.625641 306.977448,282.455841 
	C306.902039,282.134766 306.810486,281.817505 306.386230,281.263855 
	C307.055267,278.382080 308.064484,275.734924 309.443604,273.046234 
z"/>
<path fill="#FEBD54" opacity="1.000000" stroke="none" 
	d="
M189.960876,167.304871 
	C206.142975,165.497437 217.574081,173.225311 226.549911,186.281967 
	C227.426987,185.568207 228.269821,184.882309 229.411926,184.044617 
	C230.473785,185.518234 231.732697,187.092239 231.907471,188.778580 
	C232.470840,194.214050 232.634750,199.690933 232.976257,205.572174 
	C218.976883,206.065979 204.953918,206.139450 190.466415,206.146896 
	C189.992355,193.315445 189.982849,180.550034 189.960876,167.304871 
z"/>
<path fill="#FDB753" opacity="1.000000" stroke="none" 
	d="
M189.068665,232.244904 
	C193.422256,231.841705 197.749481,231.921783 202.537888,232.534241 
	C203.000397,244.467712 202.957352,255.869156 203.046524,267.269562 
	C203.061447,269.179260 203.649536,271.084503 203.828766,273.440125 
	C203.767685,278.932312 203.850616,283.976166 203.619354,289.248077 
	C202.870224,291.343506 202.092865,293.204803 202.059845,295.079254 
	C201.919617,303.039154 201.795654,311.010559 202.090683,318.961975 
	C202.227844,322.657837 203.335541,326.317719 204.003281,329.993896 
	C193.861420,330.008301 192.881699,329.139709 193.035965,318.855042 
	C193.185165,308.908051 193.625427,298.965424 194.349518,288.746765 
	C196.763596,289.406891 198.335632,289.553864 198.319077,286.605499 
	C198.297592,282.778809 198.381866,278.949036 198.233261,275.127869 
	C198.205719,274.419586 197.291199,273.745789 196.786011,273.056091 
	C196.184616,273.798096 195.149780,274.493805 195.064606,275.290955 
	C194.826691,277.517883 194.981842,279.786804 194.981842,282.039185 
	C194.681015,282.138580 194.380173,282.238007 194.079346,282.337433 
	C191.935242,279.281586 189.791138,276.225739 187.647034,273.169891 
	C188.098282,271.307617 188.918991,269.449554 188.940460,267.582336 
	C189.074005,255.965439 189.028458,244.346451 189.068665,232.244904 
z"/>
<path fill="#080603" opacity="1.000000" stroke="none" 
	d="
M187.230896,273.126465 
	C189.791138,276.225739 191.935242,279.281586 194.079346,282.337433 
	C194.380173,282.238007 194.681015,282.138580 194.981842,282.039185 
	C194.981842,279.786804 194.826691,277.517883 195.064606,275.290955 
	C195.149780,274.493805 196.184616,273.798096 196.786011,273.056091 
	C197.291199,273.745789 198.205719,274.419586 198.233261,275.127869 
	C198.381866,278.949036 198.297592,282.778809 198.319077,286.605499 
	C198.335632,289.553864 196.763596,289.406891 194.376450,288.338989 
	C192.246902,285.532745 190.502090,282.860107 188.109955,279.195953 
	C187.539337,283.190704 187.131790,286.043823 186.360809,289.036743 
	C185.344894,288.629486 184.148270,288.102966 184.126724,287.532104 
	C183.965454,283.257629 183.930542,278.968719 184.157913,274.700470 
	C184.189072,274.115814 185.887970,273.619995 187.230896,273.126465 
z"/>
<path fill="#130F06" opacity="1.000000" stroke="none" 
	d="
M175.120026,288.279602 
	C172.663315,285.168823 169.182739,284.834747 166.823700,287.072205 
	C165.831665,288.013123 164.532944,288.630676 163.373642,289.395233 
	C163.083527,289.097046 162.793411,288.798859 162.503281,288.500671 
	C164.362701,283.948792 166.052872,279.314117 168.208511,274.907166 
	C168.705612,273.890869 170.797440,273.654663 172.542938,273.127930 
	C174.931290,278.235962 176.932098,283.275543 179.186508,288.953918 
	C177.704865,288.801331 176.543503,288.681702 175.120026,288.279602 
z"/>
<path fill="#030201" opacity="1.000000" stroke="none" 
	d="
M230.454590,381.095032 
	C222.197311,381.168915 214.397324,381.168915 206.047684,381.168915 
	C207.625565,363.761566 209.151779,346.924255 210.885620,329.468689 
	C211.727280,328.515747 212.361313,328.181030 213.365311,327.866760 
	C217.853714,326.001831 221.972153,324.116455 226.435577,322.160156 
	C231.222824,318.151764 235.665054,314.214355 240.406754,310.105286 
	C243.110992,306.337769 245.515747,302.741913 247.920502,299.146088 
	C246.793121,316.557220 245.721527,333.972260 244.516479,351.377991 
	C243.840439,361.142883 242.943665,370.892426 242.115921,381.021149 
	C238.186447,381.021149 234.549179,381.021149 230.454590,381.095032 
z"/>
<path fill="#F6924B" opacity="1.000000" stroke="none" 
	d="
M248.083435,298.788361 
	C245.515747,302.741913 243.110992,306.337769 240.382416,309.649109 
	C239.700470,302.560974 239.342331,295.757385 239.044312,288.522461 
	C239.104416,286.193665 239.104416,284.296204 239.104416,282.309937 
	C241.856964,282.309937 243.919983,282.309937 245.495621,282.309937 
	C248.069565,284.166718 243.816513,289.767944 249.946045,288.868530 
	C249.379486,292.055908 248.812927,295.243256 248.083435,298.788361 
z"/>
<path fill="#090603" opacity="1.000000" stroke="none" 
	d="
M250.025391,288.636902 
	C243.816513,289.767944 248.069565,284.166718 245.495621,282.309937 
	C243.919983,282.309937 241.856964,282.309937 239.104416,282.309937 
	C239.104416,284.296204 239.104416,286.193665 238.600708,288.546875 
	C237.356110,288.235992 236.057419,287.523956 235.976227,286.692932 
	C235.705002,283.917145 235.660187,281.077393 235.942627,278.304321 
	C236.124619,276.517487 237.032181,274.804504 237.614563,273.058441 
	C238.164413,274.715088 238.699066,276.377045 239.278656,278.023224 
	C239.378418,278.306519 239.669235,278.522583 239.852249,278.745850 
	C241.969574,278.745850 244.059998,278.745850 246.005936,278.745850 
	C247.186050,276.489838 244.843475,272.130432 249.988190,272.969299 
	C250.319138,277.699860 250.650070,282.430450 250.971634,287.630859 
	C250.962250,288.100708 250.472900,288.082428 250.472900,288.082428 
	C250.472900,288.082428 250.104721,288.405273 250.025391,288.636902 
z"/>
<path fill="#FEB152" opacity="1.000000" stroke="none" 
	d="
M212.995331,327.846344 
	C212.361313,328.181030 211.727280,328.515747 210.876068,329.016754 
	C208.713425,329.403992 206.767960,329.624939 204.412872,329.919861 
	C203.335541,326.317719 202.227844,322.657837 202.090683,318.961975 
	C201.795654,311.010559 201.919617,303.039154 202.059845,295.079254 
	C202.092865,293.204803 202.870224,291.343506 204.073792,289.246002 
	C207.561478,289.038147 210.280563,289.060425 212.999802,289.546173 
	C212.998428,302.621887 212.996872,315.234100 212.995331,327.846344 
z"/>
<path fill="#FDA950" opacity="1.000000" stroke="none" 
	d="
M213.365311,327.866760 
	C212.996872,315.234100 212.998428,302.621887 213.231567,289.265503 
	C213.534821,283.249542 208.743576,287.648499 206.551590,284.146027 
	C208.782013,282.889130 210.949707,281.667603 213.117401,280.446045 
	C212.983139,280.099854 212.848892,279.753632 212.714630,279.407440 
	C210.837860,279.145233 208.961090,278.883057 207.084320,278.620880 
	C206.988556,278.142426 206.892776,277.663971 206.797012,277.185516 
	C208.140274,276.825104 209.473999,276.210999 210.828888,276.160095 
	C213.235626,276.069580 214.448318,275.490631 213.000336,272.478027 
	C213.024734,259.262207 213.049377,246.511505 213.074036,233.760788 
	C218.060410,233.241241 221.556152,236.498917 225.739716,239.362091 
	C225.996780,243.211075 226.095764,246.360168 225.982788,249.501633 
	C225.704437,257.241882 225.328735,264.978638 224.620636,272.801392 
	C222.506088,274.364166 219.561310,275.621216 219.241180,277.361206 
	C218.202240,283.007935 224.808838,281.551941 227.966965,285.561584 
	C224.314026,285.371826 221.767212,285.239502 219.220383,285.107208 
	C219.068192,285.802582 218.916000,286.497925 218.763809,287.193298 
	C221.172928,287.891388 223.582047,288.589447 225.991913,289.738159 
	C226.025299,300.869568 226.057938,311.550354 226.090576,322.231110 
	C221.972153,324.116455 217.853714,326.001831 213.365311,327.866760 
z"/>
<path fill="#FB9C4E" opacity="1.000000" stroke="none" 
	d="
M226.435577,322.160156 
	C226.057938,311.550354 226.025299,300.869568 226.335281,289.607727 
	C228.080994,287.544006 230.517975,286.177582 230.700165,284.557587 
	C231.335648,278.906952 224.324554,281.092560 222.150543,276.749481 
	C225.020370,276.485992 227.413559,276.266296 229.806747,276.046570 
	C229.827469,275.570892 229.848175,275.095215 229.868896,274.619507 
	C228.243332,273.985260 226.617767,273.351044 224.992203,272.716797 
	C225.328735,264.978638 225.704437,257.241882 225.982788,249.501633 
	C226.095764,246.360168 225.996780,243.211075 225.993835,239.606354 
	C239.080551,246.465240 247.144318,257.443817 250.024139,272.571533 
	C244.843475,272.130432 247.186050,276.489838 246.005936,278.745850 
	C244.059998,278.745850 241.969574,278.745850 239.852249,278.745850 
	C239.669235,278.522583 239.378418,278.306519 239.278656,278.023224 
	C238.699066,276.377045 238.164413,274.715088 237.614563,273.058441 
	C237.032181,274.804504 236.124619,276.517487 235.942627,278.304321 
	C235.660187,281.077393 235.705002,283.917145 235.976227,286.692932 
	C236.057419,287.523956 237.356110,288.235992 238.540588,288.978180 
	C239.342331,295.757385 239.700470,302.560974 240.082947,309.820740 
	C235.665054,314.214355 231.222824,318.151764 226.435577,322.160156 
z"/>
<path fill="#FAAE50" opacity="1.000000" stroke="none" 
	d="
M212.781952,233.526245 
	C213.049377,246.511505 213.024734,259.262207 212.550217,272.507446 
	C209.391144,272.998596 206.681961,272.995209 203.972763,272.991821 
	C203.649536,271.084503 203.061447,269.179260 203.046524,267.269562 
	C202.957352,255.869156 203.000397,244.467712 202.996628,232.607437 
	C206.159424,232.529388 209.324646,232.910538 212.781952,233.526245 
z"/>
<path fill="#F4A94E" opacity="1.000000" stroke="none" 
	d="
M299.980835,297.968689 
	C297.953827,303.205658 296.036499,308.060730 293.741821,313.871277 
	C290.877502,306.461853 288.413239,300.087189 286.103912,294.113312 
	C290.786774,294.388672 295.500427,294.665863 300.714996,294.972504 
	C300.623627,295.354919 300.357056,296.470825 299.980835,297.968689 
z"/>
<path fill="#E6B64D" opacity="1.000000" stroke="none" 
	d="
M355.468109,281.519165 
	C356.502289,283.996735 357.352448,286.132111 358.697845,289.511322 
	C355.161346,287.963409 352.597198,285.965454 350.033966,285.966614 
	C347.494873,285.967773 344.956696,287.984711 341.277496,289.626495 
	C343.623962,283.897400 345.288513,279.144012 347.510101,274.667053 
	C348.847107,271.972656 351.123260,271.974396 352.636841,274.777222 
	C353.727936,276.797791 354.416168,279.035919 355.468109,281.519165 
z"/>
<path fill="#FDC955" opacity="1.000000" stroke="none" 
	d="
M333.836090,273.024750 
	C335.248413,273.572998 336.196747,274.120911 337.145081,274.668823 
	C336.058350,275.395844 334.971588,276.122864 333.149323,277.341980 
	C333.149323,279.805450 333.249969,283.098724 333.082550,286.378357 
	C333.037506,287.260101 332.177002,288.100250 331.690826,288.959473 
	C331.097229,288.044861 330.057953,287.161224 329.991852,286.209930 
	C329.774506,283.083252 329.910095,279.932007 329.910095,277.158447 
	C328.199860,276.081451 326.861450,275.238586 325.523041,274.395721 
	C325.691772,273.938629 325.860535,273.481506 326.029266,273.024414 
	C328.476868,273.024414 330.924469,273.024414 333.836090,273.024750 
z"/>
<path fill="#0E0B05" opacity="1.000000" stroke="none" 
	d="
M293.306580,285.722870 
	C292.211792,284.963684 291.273285,284.448456 290.796021,283.655548 
	C289.171356,280.956360 289.625580,278.196350 292.412537,276.995575 
	C293.804321,276.395935 297.354462,277.387146 297.630890,278.331329 
	C298.201050,280.279175 297.442749,282.747437 296.758759,284.847778 
	C296.562866,285.449371 294.747192,285.523529 293.306580,285.722870 
z"/>
<path fill="#090603" opacity="1.000000" stroke="none" 
	d="
M203.828766,273.440125 
	C206.681961,272.995209 209.391144,272.998596 212.550446,272.972534 
	C214.448318,275.490631 213.235626,276.069580 210.828888,276.160095 
	C209.473999,276.210999 208.140274,276.825104 206.797012,277.185516 
	C206.892776,277.663971 206.988556,278.142426 207.084320,278.620880 
	C208.961090,278.883057 210.837860,279.145233 212.714630,279.407440 
	C212.848892,279.753632 212.983139,280.099854 213.117401,280.446045 
	C210.949707,281.667603 208.782013,282.889130 206.551590,284.146027 
	C208.743576,287.648499 213.534821,283.249542 213.231384,288.802002 
	C210.280563,289.060425 207.561478,289.038147 204.387970,289.017944 
	C203.850616,283.976166 203.767685,278.932312 203.828766,273.440125 
z"/>
<path fill="#110B05" opacity="1.000000" stroke="none" 
	d="
M224.620636,272.801392 
	C226.617767,273.351044 228.243332,273.985260 229.868896,274.619507 
	C229.848175,275.095215 229.827469,275.570892 229.806747,276.046570 
	C227.413559,276.266296 225.020370,276.485992 222.150543,276.749481 
	C224.324554,281.092560 231.335648,278.906952 230.700165,284.557587 
	C230.517975,286.177582 228.080994,287.544006 226.334534,289.157104 
	C223.582047,288.589447 221.172928,287.891388 218.763809,287.193298 
	C218.916000,286.497925 219.068192,285.802582 219.220383,285.107208 
	C221.767212,285.239502 224.314026,285.371826 227.966965,285.561584 
	C224.808838,281.551941 218.202240,283.007935 219.241180,277.361206 
	C219.561310,275.621216 222.506088,274.364166 224.620636,272.801392 
z"/>
</svg>